<?xml version="1.0" encoding="utf-8"?>
<!-- Generator: Adobe Illustrator 17.0.0, SVG Export Plug-In . SVG Version: 6.00 Build 0)  -->
<!DOCTYPE svg PUBLIC "-//W3C//DTD SVG 1.1//EN" "http://www.w3.org/Graphics/SVG/1.1/DTD/svg11.dtd">
<svg version="1.1" id="Layer_1" xmlns="http://www.w3.org/2000/svg" xmlns:xlink="http://www.w3.org/1999/xlink" x="0px" y="0px"
	 width="612px" height="792px" viewBox="0 0 612 792" enable-background="new 0 0 612 792" xml:space="preserve">
<path fill="#676767" d="M554.952,432.925l-0.93,0.085l-1.606,0.676l-1.226,1.184l-0.676,1.606l-0.042,0.93l0.042,0.93l0.676,1.606
	l1.226,1.226l1.606,0.676l0.93,0.042l0.93-0.042l1.606-0.676l1.226-1.226l0.676-1.606l0.042-0.888l-0.042-0.93l-0.676-1.606
	l-1.226-1.226l-1.606-0.676L554.952,432.925z M554.952,432.925v-0.719h0.549l1.015,0.211l1.395,0.634l1.395,1.437l0.634,1.395
	l0.211,1.057v0.507v0.55l-0.211,1.014l-0.634,1.353l-1.437,1.395l-1.353,0.634l-1.015,0.211l-0.507,0.042l-0.55-0.042l-1.015-0.211
	l-1.395-0.634l-1.437-1.395l-0.634-1.395l-0.211-1.015v-0.549v-0.507l0.211-1.057l0.634-1.353l1.437-1.437l1.353-0.634
	L554.952,432.925z"/>
<path fill="none" stroke="#676767" stroke-width="0.24" stroke-linecap="square" stroke-miterlimit="10" d="M554.952,432.925
	l-0.93,0.085l-1.606,0.676l-1.226,1.184l-0.676,1.606l-0.042,0.93l0.042,0.93l0.676,1.606l1.226,1.226l1.606,0.676l0.93,0.042
	l0.93-0.042l1.606-0.676l1.226-1.226l0.676-1.606l0.042-0.888l-0.042-0.93l-0.676-1.606l-1.226-1.226l-1.606-0.676L554.952,432.925z
	 M554.952,432.207h0.549l1.015,0.211l1.395,0.634l1.395,1.437l0.634,1.395l0.211,1.057v0.507v0.55l-0.211,1.014l-0.634,1.353
	l-1.437,1.395l-1.353,0.634l-1.015,0.211l-0.507,0.042l-0.55-0.042l-1.015-0.211l-1.395-0.634l-1.437-1.395l-0.634-1.395
	l-0.211-1.015v-0.549v-0.507l0.211-1.057l0.634-1.353l1.437-1.437l1.353-0.634l1.015-0.211H554.952z"/>
<path fill="#676767" d="M553.726,437.026h0.845h0.803h0.085l0.085-0.042l0.296-0.127l0.296-0.507v-0.296l-0.085-0.296l-0.465-0.423
	l-0.338-0.042h-0.719h-0.719l-0.042,0.042h-0.042V437.026z M553.683,437.786v2.071h-0.719v-5.284h0.127h0.085h1.015h1.015
	l0.55,0.085l0.845,0.592l0.211,0.507l0.085,0.55l-0.423,0.93l-0.465,0.338v0.042h-0.042l0.423,0.507l0.465,1.099l0.042,0.676h-0.676
	l-0.169-0.634l-0.423-0.888l-0.592-0.507l-0.845-0.169L553.683,437.786z"/>
<path fill="none" stroke="#676767" stroke-width="0.24" stroke-linecap="square" stroke-miterlimit="10" d="M553.726,437.026h0.845
	h0.803h0.085l0.085-0.042l0.296-0.127l0.296-0.507v-0.296l-0.085-0.296l-0.465-0.423l-0.338-0.042h-0.719h-0.719l-0.042,0.042
	h-0.042V437.026z M553.683,437.786v2.071h-0.719v-5.284h0.127h0.085h1.015h1.015l0.55,0.085l0.845,0.592l0.211,0.507l0.085,0.55
	l-0.423,0.93l-0.465,0.338v0.042h-0.042l0.423,0.507l0.465,1.099l0.042,0.676h-0.676l-0.169-0.634l-0.423-0.888l-0.592-0.507
	l-0.845-0.169L553.683,437.786z"/>
<polygon fill-rule="evenodd" clip-rule="evenodd" fill="#C72039" points="178.052,370.996 180.166,372.518 184.224,375.985 
	188.029,379.874 191.664,384.101 193.355,386.341 193.355,386.341 237.022,386.341 236.008,384.819 233.936,382.072 231.78,379.62 
	229.582,377.422 227.3,375.52 224.932,373.829 222.565,372.349 220.071,371.123 216.309,369.601 211.109,368.206 205.783,367.403 
	200.33,367.065 197.54,367.065 197.54,367.065 195.13,367.107 190.227,367.572 185.366,368.545 180.504,370.024 178.052,370.996 "/>
<polygon fill="#FFFFFF" points="164.06,475.451 162.75,476.297 159.833,477.649 156.705,478.537 153.281,479.002 151.463,479.044 
	149.392,479.002 145.418,478.368 141.741,477.1 138.401,475.197 136.837,474.014 135.4,472.746 133.624,470.632 132.694,469.152 
	131.933,467.631 131.384,465.982 130.834,463.403 130.792,461.543 130.834,459.81 131.384,457.316 131.933,455.71 133.159,453.427 
	135.442,450.595 136.879,449.285 138.443,448.059 141.783,446.114 145.461,444.846 149.392,444.212 151.463,444.127 153.07,444.17 
	156.24,444.635 159.368,445.522 162.496,446.833 164.06,447.678 164.314,447.847 164.398,448.27 164.229,448.524 161.228,452.413 
	161.017,452.624 160.509,452.709 160.256,452.582 159.072,451.948 156.789,450.933 154.591,450.299 152.52,449.961 151.463,449.919 
	150.11,449.961 147.574,450.384 145.249,451.271 143.051,452.582 142.079,453.427 141.106,454.273 139.669,456.133 138.655,458.162 
	138.19,460.36 138.147,461.543 138.19,462.727 138.655,464.968 139.627,467.039 141.064,468.941 141.994,469.829 143.009,470.632 
	145.207,471.9 147.574,472.746 150.11,473.168 151.463,473.211 153.07,473.168 155.902,472.703 157.128,472.238 157.381,472.112 
	158.1,471.773 158.988,471.308 160.298,470.674 160.594,470.547 161.059,470.632 161.228,470.843 164.314,474.606 164.441,474.859 
	164.314,475.282 164.06,475.451 "/>
<polygon fill="#FFFFFF" points="229.033,478.537 200.583,478.537 200.245,478.537 199.907,478.199 199.865,477.945 199.865,445.184 
	199.907,444.931 200.245,444.592 200.583,444.592 229.033,444.592 229.371,444.592 229.709,444.931 229.751,445.184 
	229.751,449.369 229.709,449.665 229.371,449.961 229.033,449.961 206.967,449.961 206.967,458.796 225.905,458.796 
	226.243,458.838 226.581,459.134 226.623,459.388 226.623,463.53 226.581,463.826 226.243,464.164 225.905,464.164 206.967,464.164 
	206.967,473.168 229.033,473.168 229.371,473.168 229.709,473.464 229.751,473.76 229.751,477.945 229.709,478.199 229.371,478.537 
	229.033,478.537 "/>
<polygon fill="#FFFFFF" points="298.655,478.537 293.413,478.537 293.075,478.495 292.864,478.326 271.516,454.695 271.516,477.945 
	271.516,478.199 271.136,478.537 270.84,478.537 265.598,478.537 265.26,478.537 264.922,478.199 264.88,477.945 264.88,445.184 
	264.922,444.931 265.26,444.592 265.598,444.592 270.84,444.592 271.178,444.635 271.516,444.888 292.695,468.349 292.695,445.184 
	292.737,444.931 293.075,444.592 293.413,444.592 298.655,444.592 298.993,444.592 299.374,444.931 299.416,445.184 
	299.416,477.945 299.374,478.199 298.993,478.537 298.655,478.537 "/>
<path fill="#FFFFFF" d="M361.683,458.754l-0.042-1.015l-0.296-1.902l-0.55-1.606l-0.888-1.395l-0.549-0.634l-0.592-0.549
	l-1.353-0.888l-1.564-0.592l-1.733-0.296h-0.972l-0.972,0.042l-1.733,0.296l-1.564,0.592l-1.353,0.888l-0.592,0.592l-0.592,0.592
	l-0.888,1.395l-0.592,1.649l-0.254,1.818l-0.042,1.015v3.551h17.12V458.754z M368.066,478.537h-5.707h-0.296l-0.38-0.338v-0.254
	v-10.272h-17.12v10.272l-0.042,0.254l-0.338,0.338h-0.338h-5.707h-0.296l-0.38-0.338v-0.254v-19.318l0.042-1.395l0.465-2.663
	l0.93-2.452l1.437-2.283l0.93-1.057l1.099-1.099l2.579-1.733l2.959-1.184l3.382-0.592l1.86-0.042l1.86,0.042l3.339,0.592
	l3.001,1.184l2.536,1.733l1.141,1.099l0.888,1.057l1.437,2.24l0.93,2.452l0.465,2.705l0.042,1.395v19.318l-0.042,0.254l-0.338,0.338
	H368.066z"/>
<polygon fill="#FFFFFF" points="437.223,478.537 429.657,478.537 429.318,478.537 428.769,478.241 428.515,477.987 416.51,463.953 
	414.016,466.532 414.016,477.945 413.974,478.199 413.635,478.537 413.297,478.537 407.591,478.537 407.252,478.537 
	406.914,478.199 406.872,477.945 406.872,445.184 406.914,444.931 407.252,444.592 407.591,444.592 413.297,444.592 
	413.635,444.592 413.974,444.931 414.016,445.184 414.016,458.415 426.106,445.184 426.359,444.931 426.951,444.592 
	427.289,444.592 435.279,444.592 435.533,444.635 435.702,444.846 435.744,445.1 435.533,445.396 421.414,459.388 437.519,477.734 
	437.731,478.114 437.604,478.495 437.223,478.537 "/>
<polygon fill="#FFFFFF" points="478.777,478.537 473.07,478.537 472.774,478.537 472.394,478.199 472.394,477.945 472.394,445.184 
	472.394,444.931 472.774,444.592 473.07,444.592 478.777,444.592 479.115,444.592 479.453,444.931 479.496,445.184 479.496,477.945 
	479.453,478.199 479.115,478.537 478.777,478.537 "/>
<polygon fill="#FFFFFF" points="551.95,478.537 546.708,478.537 546.37,478.495 546.159,478.326 524.811,454.695 524.811,477.945 
	524.811,478.199 524.431,478.537 524.135,478.537 518.893,478.537 518.555,478.537 518.217,478.199 518.175,477.945 
	518.175,445.184 518.217,444.931 518.555,444.592 518.893,444.592 524.135,444.592 524.473,444.635 524.811,444.888 545.99,468.349 
	545.99,445.184 546.032,444.931 546.37,444.592 546.708,444.592 551.95,444.592 552.288,444.592 552.669,444.931 552.711,445.184 
	552.711,477.945 552.669,478.199 552.288,478.537 551.95,478.537 "/>
<path fill="#4891CE" d="M190.015,363.261l-1.353-1.141l-2.79-2.029l-2.917-1.733l-3.044-1.48l-3.17-1.141l-3.339-0.888l-3.424-0.592
	l-3.593-0.254l-1.86-0.042l-1.86,0.042l-3.635,0.254l-3.466,0.592l-3.34,0.888l-3.213,1.141l-3.086,1.48l-2.917,1.733l-2.79,2.029
	l-1.353,1.141l-1.31,1.184l-2.325,2.452l-1.987,2.536l-1.649,2.663l-1.31,2.79l-1.015,2.875l-0.676,3.001l-0.338,3.128v1.606v1.564
	l0.338,3.086l0.676,2.959l0.972,2.875l1.31,2.748l1.606,2.663l1.945,2.536l2.325,2.452l1.268,1.141l1.31,1.141l2.832,1.987
	l2.917,1.733l3.086,1.437l3.255,1.141l3.34,0.845l3.551,0.592l3.635,0.254l1.902,0.042l1.86-0.042l3.635-0.254l3.466-0.592
	l3.382-0.845l3.17-1.141l3.086-1.437l2.917-1.733l2.79-1.987l1.353-1.141l1.31-1.141l2.325-2.41l1.987-2.494l1.649-2.663
	l1.353-2.748l0.972-2.874l0.676-3.001l0.338-3.086v-1.606v-1.649l-0.338-3.128l-0.676-3.044l-1.015-2.875l-1.353-2.79l-1.691-2.663
	l-2.029-2.536l-2.367-2.41L190.015,363.261z M190.015,363.261l18.938,60.027l-2.283,1.775l-4.819,3.213l-5.073,2.705l-5.284,2.283
	l-5.58,1.818l-5.791,1.353l-6.045,0.93l-6.299,0.465l-3.255,0.042l-3.255-0.042l-6.299-0.465l-6.045-0.93l-5.834-1.395l-5.58-1.818
	l-5.326-2.283l-5.115-2.79l-4.819-3.213l-2.325-1.775l-2.325-1.945l-4.143-4.016l-3.551-4.227l-2.959-4.481l-2.367-4.734
	l-1.775-4.904l-1.184-5.199l-0.592-5.369l-0.042-2.79l0.042-2.832l0.592-5.495l1.184-5.2l1.775-4.988l2.367-4.734l2.959-4.523
	l3.551-4.269l4.143-4.016l2.325-1.945l2.325-1.775l4.819-3.213l5.115-2.79l5.326-2.283l5.58-1.818l5.834-1.395l6.045-0.93
	l6.299-0.465l3.255-0.042l3.255,0.042l6.256,0.465l6.003,0.93l5.791,1.395l5.58,1.818l5.284,2.283l5.115,2.79l4.819,3.213
	l2.325,1.775l2.325,1.945l4.143,4.016l3.551,4.269l2.959,4.523l2.367,4.734l1.775,4.988l1.184,5.2l0.592,5.495l0.042,2.832
	l-0.042,2.79l-0.592,5.453l-1.184,5.199l-1.775,4.946l-2.367,4.734l-2.959,4.481l-3.551,4.269L190.015,363.261z"/>
<polygon fill="#4891CE" points="326.47,354.13 295.485,354.13 295.485,434.236 295.485,434.785 295.146,435.631 294.47,436.18 
	293.456,436.476 292.821,436.518 271.77,436.518 271.136,436.476 270.164,436.18 269.487,435.631 269.149,434.785 269.107,434.236 
	269.107,354.13 238.164,354.13 237.529,354.088 236.515,353.834 235.839,353.284 235.543,352.523 235.5,352.016 235.5,336.545 
	235.543,335.995 235.839,335.15 236.515,334.6 237.529,334.304 238.164,334.304 326.47,334.304 327.104,334.304 328.077,334.6 
	328.753,335.15 329.091,335.995 329.133,336.545 329.133,352.016 329.091,352.523 328.753,353.284 328.077,353.834 327.104,354.088 
	326.47,354.13 "/>
<polygon fill="#4891CE" points="432.996,436.518 345.746,436.518 345.112,436.476 344.14,436.18 343.464,435.631 343.125,434.785 
	343.083,434.236 343.083,336.545 343.125,335.995 343.464,335.15 344.14,334.6 345.112,334.304 345.746,334.304 432.996,334.304 
	433.588,334.304 434.518,334.6 435.152,335.15 435.448,335.995 435.49,336.545 435.49,352.016 435.448,352.523 435.152,353.284 
	434.518,353.834 433.588,354.088 432.996,354.13 369.461,354.13 369.461,375.139 423.443,375.139 424.077,375.139 425.091,375.435 
	425.725,375.985 426.064,376.83 426.106,377.379 426.106,392.851 426.064,393.316 425.725,394.119 425.091,394.669 424.077,394.922 
	423.443,394.922 369.461,394.922 369.461,416.693 432.996,416.693 433.588,416.735 434.518,416.989 435.152,417.496 
	435.448,418.299 435.49,418.806 435.49,434.236 435.448,434.785 435.152,435.631 434.518,436.18 433.588,436.476 432.996,436.518 
	"/>
<polygon fill="#4891CE" points="552.838,427.218 550.851,428.529 546.708,430.896 542.354,432.925 537.831,434.616 533.097,435.969 
	528.151,436.983 523.036,437.617 517.71,437.956 514.962,437.998 511.707,437.956 505.408,437.491 499.364,436.561 493.53,435.166 
	487.992,433.306 482.666,430.981 477.636,428.233 472.817,424.978 470.534,423.16 468.336,421.258 464.362,417.242 460.98,413.015 
	458.148,408.534 455.908,403.8 454.217,398.854 453.076,393.612 452.526,388.159 452.484,385.327 452.526,382.621 453.118,377.422 
	454.259,372.434 455.992,367.615 458.275,363.007 461.149,358.568 464.616,354.341 468.632,350.325 470.872,348.423 
	473.197,346.521 478.016,343.139 483.089,340.222 488.373,337.813 493.868,335.91 499.617,334.431 505.578,333.459 511.749,332.994 
	514.962,332.951 517.329,332.994 522.064,333.332 526.798,333.966 531.533,334.98 536.267,336.291 541.002,337.982 545.736,339.969 
	550.471,342.294 552.838,343.604 553.303,343.858 553.937,344.534 554.106,345.253 553.852,346.14 553.514,346.605 542.566,360.851 
	542.143,361.316 541.298,361.866 540.368,362.035 539.353,361.781 538.846,361.485 537.366,360.555 534.407,358.949 
	531.406,357.596 528.447,356.412 525.445,355.525 522.444,354.806 519.443,354.341 516.442,354.13 514.962,354.13 513.187,354.13 
	509.72,354.426 506.381,355.017 503.126,355.863 500.04,357.047 497.081,358.484 494.206,360.259 491.501,362.288 490.19,363.43 
	488.88,364.571 486.597,367.023 484.653,369.559 483.004,372.18 481.736,374.928 480.722,377.76 480.087,380.719 479.749,383.763 
	479.749,385.327 479.749,386.933 480.087,390.103 480.722,393.105 481.694,396.022 482.962,398.769 484.568,401.432 
	486.513,403.969 488.753,406.378 489.979,407.52 491.332,408.661 494.037,410.732 496.912,412.465 499.913,413.903 503.041,415.086 
	506.254,415.932 509.636,416.524 513.144,416.819 514.962,416.862 517.118,416.819 521.176,416.481 525.023,415.805 528.658,414.79 
	530.349,414.156 532.463,412.973 534.576,411.874 536.732,410.817 539.015,409.633 539.522,409.38 540.537,409.168 541.382,409.337 
	542.185,409.929 542.566,410.394 553.726,424.217 553.979,424.555 554.191,425.316 553.979,426.077 553.303,426.838 
	552.838,427.218 "/>
<polygon fill-rule="evenodd" clip-rule="evenodd" fill="#DC1E3B" points="147.786,362.077 145.376,362.331 140.599,363.303 
	135.907,364.698 131.384,366.431 129.186,367.488 129.186,367.488 127.03,368.587 122.803,370.996 118.787,373.702 114.898,376.661 
	111.22,379.831 107.669,383.213 104.372,386.764 101.202,390.484 99.722,392.386 99.722,392.386 96.721,396.36 91.268,404.73 
	86.449,413.438 82.264,422.484 80.404,427.134 80.404,427.134 78.628,431.826 75.585,441.38 73.175,451.06 71.315,460.909 
	70.639,465.855 70.639,465.855 70.005,471.012 69.624,476.212 69.624,476.212 69.582,477.015 69.54,478.156 69.54,478.156 
	115.828,478.156 116.208,473.676 117.307,465.052 118.829,456.64 120.816,448.397 121.957,444.296 121.957,444.296 123.394,439.562 
	126.692,430.178 130.581,421.047 135.104,412.17 137.598,407.9 137.598,407.9 140.092,403.842 144.192,398.008 147.067,394.204 
	150.153,390.568 153.365,387.06 156.789,383.72 160.34,380.55 162.2,379.07 162.2,379.07 163.933,377.718 167.484,375.224 
	171.204,372.899 175.051,370.827 179.025,369.01 183.083,367.488 187.268,366.262 191.537,365.374 193.735,365.078 193.735,365.078 
	187.014,364.529 180.335,363.937 180.335,363.937 171.12,363.176 161.947,362.415 161.947,362.415 161.144,362.373 160.34,362.288 
	160.34,362.288 156.198,361.95 152.055,361.866 152.055,361.866 149.941,361.908 147.786,362.077 "/>
</svg>
